<svg width="36" height="36" viewBox="0 0 36 36" fill="none" xmlns="http://www.w3.org/2000/svg">
<g opacity="0.3">
<path d="M14.1809 22.4453V24.2923H21.1304V26.0766H14.1809V29.7392H11.0191V26.0766H7.82609V24.2923H11.0191V7.82617H19.6278C22.487 7.82617 24.72 8.46269 26.327 9.73574C27.9339 10.9879 28.7374 12.7827 28.7374 15.1201C28.7374 17.4783 27.9339 19.294 26.327 20.567C24.72 21.8192 22.487 22.4453 19.6278 22.4453H14.1809ZM25.5757 15.1514C25.5757 13.6697 25.0643 12.5323 24.0417 11.7392C23.0191 10.9462 21.5478 10.5497 19.6278 10.5497H14.1809V19.847H19.6278C21.527 19.847 22.9878 19.4401 24.0104 18.6262C25.0539 17.7914 25.5757 16.6331 25.5757 15.1514Z" fill="#FF5900"/>
</g>
</svg>
