<svg width="358" height="118" viewBox="0 0 358 118" fill="none" xmlns="http://www.w3.org/2000/svg">
<g clip-path="url(#clip0_26_440)">
<rect opacity="0.2" y="1" width="358" height="117" fill="#333333"/>
<path d="M129.179 104.727C129.196 107.141 132.435 107.585 134.053 107.505C134.449 106.612 135.212 104.779 135.092 104.585C134.943 104.342 128.994 103.068 129.179 104.727Z" fill="#F1BE89"/>
<path d="M127.664 101.941C127.68 104.355 130.919 104.798 132.537 104.719C132.933 103.826 133.696 101.993 133.577 101.799C133.427 101.556 127.478 100.282 127.664 101.941Z" fill="#CE9A6A"/>
<path d="M127.769 101.569C127.785 103.983 131.024 104.427 132.642 104.347C133.038 103.455 133.801 101.621 133.682 101.427C133.532 101.184 127.583 99.9107 127.769 101.569Z" fill="#F1BE89"/>
<path d="M128.575 100.171C128.536 102.921 131.972 103.352 133.695 103.223C134.137 102.198 134.991 100.092 134.869 99.8737C134.715 99.6006 128.415 98.2864 128.575 100.171Z" fill="#CE9A6A"/>
<path d="M128.695 99.745C128.656 102.494 132.092 102.925 133.815 102.797C134.257 101.772 135.111 99.6659 134.988 99.4475C134.835 99.1743 128.535 97.8602 128.695 99.745Z" fill="#F1BE89"/>
<rect width="10.6268" height="26.3901" transform="matrix(-0.836322 -0.548239 -0.548239 0.836322 147.074 100.626)" fill="white"/>
<path d="M151.308 112.554C150.758 115.159 148.091 127.518 146.825 133.372L146.525 134.437L132.887 130.597L134.507 124.843C133.129 122.385 132.685 117.429 133.465 114.659C134.245 111.889 133.66 109.884 132.549 105.661C131.66 102.283 133.059 101.128 133.869 100.973C131.525 100.313 129.175 98.0406 131.759 97.8486C136.714 97.404 143.726 101.909 146.229 104.454C148.732 106.999 151.995 109.297 151.308 112.554Z" fill="#FFDAB3"/>
<path d="M141.77 114.133C140.407 113.749 139.817 112.356 139.693 111.708C139.299 109.297 138.919 104.82 140.554 106.2C142.599 107.926 141.806 107.473 142.791 110.51C143.578 112.94 142.439 113.938 141.77 114.133Z" fill="#B69577"/>
<path d="M141.464 113.586C140.1 113.202 139.511 111.81 139.387 111.161C138.993 108.75 138.613 104.273 140.248 105.654C142.292 107.379 141.5 106.926 142.484 109.964C143.272 112.393 142.132 113.391 141.464 113.586Z" fill="#D6AE8A"/>
<rect width="10.6268" height="14.5238" transform="matrix(-0.836322 -0.548239 -0.548239 0.836322 147.074 100.626)" fill="white"/>
<path d="M139.075 110.259C139.569 112.422 140.994 113.789 141.644 114.202C141.749 117.912 132.691 119.041 133.231 117.123C133.771 115.205 134.192 113.714 133.726 111.283C133.261 108.852 130.526 101.411 133.87 100.973C137.213 100.534 138.456 107.555 139.075 110.259Z" fill="#FFDAB3"/>
<path d="M132.969 104.17L136.433 103.305C135.821 102.212 134.995 101.06 133.69 101.612C132.645 102.054 132.774 103.501 132.969 104.17Z" fill="#FFF2E2"/>
<circle r="15.8184" transform="matrix(-0.962559 -0.271072 -0.271072 0.962559 150.319 84.2148)" fill="white" stroke="#333333" stroke-width="6"/>
<path d="M143.515 91.943C143.661 91.9395 143.861 91.8575 143.981 91.751C144.103 91.6406 144.168 91.5659 144.474 91.1884C145.039 90.4865 145.709 89.8953 146.253 89.613C146.411 89.5305 146.541 89.4888 147.413 89.2357C148.807 88.8332 148.986 88.7531 149.588 88.2664C150.571 87.473 150.941 87.2069 151.348 87.002C151.659 86.8462 152.177 86.7112 152.611 86.6765C152.794 86.6597 152.955 86.6539 152.969 86.662C152.983 86.6701 153.022 86.6394 153.061 86.5901C153.117 86.5159 154.372 84.3523 156.083 81.384L156.429 80.7846L156.088 80.5529C155.231 79.9756 154.914 79.7103 154.039 78.8319C153.567 78.3597 153.099 77.9321 152.685 77.5999C152.346 77.327 151.293 76.7192 150.785 76.5032C149.666 76.0299 148.49 75.6307 148.06 75.5798C147.596 75.5247 147.073 75.6068 146.823 75.7715L146.698 75.8539L146.581 76.1777C146.367 76.7738 146.362 76.7869 146.267 76.8463C146.224 76.8747 146.103 76.9356 146.003 76.9792C145.03 77.4216 144.953 77.4996 144.807 78.2467C144.73 78.6339 144.726 78.6368 144.157 78.8835C143.713 79.0747 143.601 79.1486 143.485 79.3163C143.332 79.5448 143.314 79.6544 143.298 80.4362L143.292 80.7099L142.872 81.0029C142.331 81.3754 142.275 81.4258 142.145 81.6516C142.053 81.8114 142.04 81.852 142.023 82.0205C141.985 82.3905 142.055 82.9076 142.184 83.1875C142.374 83.6033 142.722 83.8602 144.606 84.9693L145.92 85.744L146.013 85.883C146.145 86.0844 146.247 86.3377 146.249 86.4692C146.251 86.7557 145.994 86.9614 144.865 87.5671C143.774 88.1575 143.686 88.2318 143.316 88.8815C143.05 89.3462 142.923 89.6507 142.847 90.0039C142.716 90.5998 142.733 91.121 142.892 91.5163L142.953 91.669L143.193 91.8076C143.391 91.922 143.447 91.9461 143.515 91.943Z" fill="#AE6835"/>
<path d="M156.793 89.3434C156.873 89.3338 156.975 89.31 157.022 89.2891L157.106 89.2497L158.888 86.1627C160.65 83.1116 160.67 83.0756 160.669 82.9846C160.669 82.9339 160.652 82.8491 160.628 82.7928C160.593 82.7007 160.572 82.6777 160.393 82.5531C160.285 82.4804 159.692 82.1269 159.074 81.7678L157.953 81.1207L157.83 81.1267C157.685 81.1334 157.588 81.1626 157.505 81.2218C157.458 81.2582 157.129 81.809 155.806 84.0905C154.153 86.9403 153.932 87.3426 153.921 87.5094C153.916 87.5546 153.94 87.6461 153.974 87.7132L154.035 87.8338L155.342 88.5967L156.65 89.3596L156.793 89.3434Z" fill="#AE6835"/>
<path d="M108.558 50.2416C108.763 49.9195 109.237 49.9195 109.442 50.2416L115.43 59.6373C115.502 59.7494 115.614 59.8301 115.743 59.8628L126.606 62.6064C126.978 62.7005 127.124 63.1473 126.879 63.4405L119.718 71.9909C119.632 72.0929 119.589 72.2235 119.598 72.3558L120.323 83.4471C120.348 83.8274 119.965 84.1036 119.608 83.9626L109.193 79.8514C109.069 79.8023 108.931 79.8023 108.807 79.8514L98.3924 83.9626C98.0354 84.1036 97.652 83.8274 97.6769 83.4471L98.402 72.3558C98.4107 72.2235 98.3679 72.0929 98.2824 71.9909L91.121 63.4405C90.8755 63.1473 91.0219 62.7005 91.3943 62.6064L102.257 59.8628C102.386 59.8301 102.498 59.7494 102.57 59.6373L108.558 50.2416Z" fill="white"/>
<path fill-rule="evenodd" clip-rule="evenodd" d="M109 52.4606L103.896 60.4686C103.611 60.917 103.162 61.2398 102.644 61.3708L93.386 63.7091L99.4897 70.9967C99.8315 71.4048 100.003 71.9272 99.9681 72.4565L99.35 81.9097L108.226 78.4056C108.723 78.2094 109.277 78.2094 109.774 78.4056L118.65 81.9097L118.032 72.4565C117.997 71.9272 118.168 71.4048 118.51 70.9967L124.614 63.7091L115.356 61.3708C114.838 61.2398 114.389 60.917 114.104 60.4686L109 52.4606ZM109.442 50.2416C109.237 49.9195 108.763 49.9195 108.558 50.2416L102.57 59.6373C102.498 59.7494 102.386 59.8301 102.257 59.8628L91.3943 62.6064C91.0219 62.7005 90.8755 63.1473 91.121 63.4405L98.2824 71.9909C98.3679 72.0929 98.4107 72.2235 98.402 72.3558L97.6769 83.4471C97.652 83.8274 98.0354 84.1036 98.3924 83.9626L108.807 79.8514C108.931 79.8023 109.069 79.8023 109.193 79.8514L119.608 83.9626C119.965 84.1036 120.348 83.8274 120.323 83.4471L119.598 72.3558C119.589 72.2235 119.632 72.0929 119.718 71.9909L126.879 63.4405C127.124 63.1473 126.978 62.7005 126.606 62.6064L115.743 59.8628C115.614 59.8301 115.502 59.7494 115.43 59.6373L109.442 50.2416Z" fill="#333333"/>
<path d="M247.558 50.2416C247.763 49.9195 248.237 49.9195 248.442 50.2416L254.43 59.6373C254.502 59.7494 254.614 59.8301 254.743 59.8628L265.606 62.6064C265.978 62.7005 266.124 63.1473 265.879 63.4405L258.718 71.9909C258.632 72.0929 258.589 72.2235 258.598 72.3558L259.323 83.4471C259.348 83.8274 258.965 84.1036 258.608 83.9626L248.193 79.8514C248.069 79.8023 247.931 79.8023 247.807 79.8514L237.392 83.9626C237.035 84.1036 236.652 83.8274 236.677 83.4471L237.402 72.3558C237.411 72.2235 237.368 72.0929 237.282 71.9909L230.121 63.4405C229.876 63.1473 230.022 62.7005 230.394 62.6064L241.257 59.8628C241.386 59.8301 241.498 59.7494 241.57 59.6373L247.558 50.2416Z" fill="white"/>
<path fill-rule="evenodd" clip-rule="evenodd" d="M248 52.4606L242.896 60.4686C242.611 60.917 242.162 61.2398 241.644 61.3708L232.386 63.7091L238.49 70.9967C238.832 71.4048 239.003 71.9272 238.968 72.4565L238.35 81.9097L247.226 78.4056C247.723 78.2094 248.277 78.2094 248.774 78.4056L257.65 81.9097L257.032 72.4565C256.997 71.9272 257.168 71.4048 257.51 70.9967L263.614 63.7091L254.356 61.3708C253.838 61.2398 253.389 60.917 253.104 60.4686L248 52.4606ZM248.442 50.2416C248.237 49.9195 247.763 49.9195 247.558 50.2416L241.57 59.6373C241.498 59.7494 241.386 59.8301 241.257 59.8628L230.394 62.6064C230.022 62.7005 229.876 63.1473 230.121 63.4405L237.282 71.9909C237.368 72.0929 237.411 72.2235 237.402 72.3558L236.677 83.4471C236.652 83.8274 237.035 84.1036 237.392 83.9626L247.807 79.8514C247.931 79.8023 248.069 79.8023 248.193 79.8514L258.608 83.9626C258.965 84.1036 259.348 83.8274 259.323 83.4471L258.598 72.3558C258.589 72.2235 258.632 72.0929 258.718 71.9909L265.879 63.4405C266.124 63.1473 265.978 62.7005 265.606 62.6064L254.743 59.8628C254.614 59.8301 254.502 59.7494 254.43 59.6373L248.442 50.2416Z" fill="#333333"/>
<path d="M142.558 28.2487C142.763 27.9171 143.237 27.9171 143.442 28.2487L149.43 37.9207C149.502 38.0361 149.614 38.1192 149.743 38.1529L160.606 40.9772C160.978 41.074 161.124 41.534 160.879 41.8358L153.718 50.6377C153.632 50.7427 153.589 50.8771 153.598 51.0134L154.323 62.4309C154.348 62.8223 153.965 63.1066 153.608 62.9615L143.193 58.7293C143.069 58.6789 142.931 58.6789 142.807 58.7293L132.392 62.9615C132.035 63.1066 131.652 62.8223 131.677 62.4309L132.402 51.0134C132.411 50.8771 132.368 50.7427 132.282 50.6377L125.121 41.8358C124.876 41.534 125.022 41.074 125.394 40.9772L136.257 38.1529C136.386 38.1192 136.498 38.0361 136.57 37.9207L142.558 28.2487Z" fill="white"/>
<path fill-rule="evenodd" clip-rule="evenodd" d="M143 30.533L137.896 38.7765C137.611 39.2381 137.162 39.5704 136.644 39.7052L127.386 42.1124L133.49 49.6143C133.832 50.0343 134.003 50.5721 133.968 51.117L133.35 60.8482L142.226 57.2411C142.723 57.0391 143.277 57.0391 143.774 57.2411L152.65 60.8482L152.032 51.117C151.997 50.5721 152.168 50.0343 152.51 49.6142L158.614 42.1124L149.356 39.7052C148.838 39.5704 148.389 39.2381 148.104 38.7765L143 30.533ZM143.442 28.2487C143.237 27.9171 142.763 27.9171 142.558 28.2487L136.57 37.9207C136.498 38.0361 136.386 38.1192 136.257 38.1529L125.394 40.9772C125.022 41.074 124.876 41.534 125.121 41.8358L132.282 50.6377C132.368 50.7427 132.411 50.8771 132.402 51.0134L131.677 62.4309C131.652 62.8223 132.035 63.1066 132.392 62.9615L142.807 58.7293C142.931 58.6789 143.069 58.6789 143.193 58.7293L153.608 62.9615C153.965 63.1066 154.348 62.8223 154.323 62.4309L153.598 51.0134C153.589 50.8771 153.632 50.7427 153.718 50.6377L160.879 41.8358C161.124 41.534 160.978 41.074 160.606 40.9772L149.743 38.1529C149.614 38.1192 149.502 38.0361 149.43 37.9207L143.442 28.2487Z" fill="#333333"/>
<path d="M211.558 28.2487C211.763 27.9171 212.237 27.9171 212.442 28.2487L218.43 37.9207C218.502 38.0361 218.614 38.1192 218.743 38.1529L229.606 40.9772C229.978 41.074 230.124 41.534 229.879 41.8358L222.718 50.6377C222.632 50.7427 222.589 50.8771 222.598 51.0134L223.323 62.4309C223.348 62.8223 222.965 63.1066 222.608 62.9615L212.193 58.7293C212.069 58.6789 211.931 58.6789 211.807 58.7293L201.392 62.9615C201.035 63.1066 200.652 62.8223 200.677 62.4309L201.402 51.0134C201.411 50.8771 201.368 50.7427 201.282 50.6377L194.121 41.8358C193.876 41.534 194.022 41.074 194.394 40.9772L205.257 38.1529C205.386 38.1192 205.498 38.0361 205.57 37.9207L211.558 28.2487Z" fill="white"/>
<path fill-rule="evenodd" clip-rule="evenodd" d="M212 30.533L206.896 38.7765C206.611 39.2381 206.162 39.5704 205.644 39.7052L196.386 42.1124L202.49 49.6143C202.832 50.0343 203.003 50.5721 202.968 51.117L202.35 60.8482L211.226 57.2411C211.723 57.0391 212.277 57.0391 212.774 57.2411L221.65 60.8482L221.032 51.117C220.997 50.5721 221.168 50.0343 221.51 49.6142L227.614 42.1124L218.356 39.7052C217.838 39.5704 217.389 39.2381 217.104 38.7765L212 30.533ZM212.442 28.2487C212.237 27.9171 211.763 27.9171 211.558 28.2487L205.57 37.9207C205.498 38.0361 205.386 38.1192 205.257 38.1529L194.394 40.9772C194.022 41.074 193.876 41.534 194.121 41.8358L201.282 50.6377C201.368 50.7427 201.411 50.8771 201.402 51.0134L200.677 62.4309C200.652 62.8223 201.035 63.1066 201.392 62.9615L211.807 58.7293C211.931 58.6789 212.069 58.6789 212.193 58.7293L222.608 62.9615C222.965 63.1066 223.348 62.8223 223.323 62.4309L222.598 51.0134C222.589 50.8771 222.632 50.7427 222.718 50.6377L229.879 41.8358C230.124 41.534 229.978 41.074 229.606 40.9772L218.743 38.1529C218.614 38.1192 218.502 38.0361 218.43 37.9207L212.442 28.2487Z" fill="#333333"/>
<path d="M177.558 11.2416C177.763 10.9195 178.237 10.9195 178.442 11.2416L184.43 20.6373C184.502 20.7494 184.614 20.8301 184.743 20.8628L195.606 23.6064C195.978 23.7005 196.124 24.1473 195.879 24.4405L188.718 32.9909C188.632 33.0929 188.589 33.2235 188.598 33.3558L189.323 44.4471C189.348 44.8274 188.965 45.1036 188.608 44.9626L178.193 40.8514C178.069 40.8023 177.931 40.8023 177.807 40.8514L167.392 44.9626C167.035 45.1036 166.652 44.8274 166.677 44.4471L167.402 33.3558C167.411 33.2235 167.368 33.0929 167.282 32.9909L160.121 24.4405C159.876 24.1473 160.022 23.7005 160.394 23.6064L171.257 20.8628C171.386 20.8301 171.498 20.7494 171.57 20.6373L177.558 11.2416Z" fill="white"/>
<path fill-rule="evenodd" clip-rule="evenodd" d="M178 13.4606L172.896 21.4686C172.611 21.917 172.162 22.2398 171.644 22.3708L162.386 24.7091L168.49 31.9967C168.832 32.4048 169.003 32.9272 168.968 33.4565L168.35 42.9097L177.226 39.4056C177.723 39.2094 178.277 39.2094 178.774 39.4056L187.65 42.9097L187.032 33.4565C186.997 32.9272 187.168 32.4048 187.51 31.9967L193.614 24.7091L184.356 22.3708C183.838 22.2398 183.389 21.917 183.104 21.4686L178 13.4606ZM178.442 11.2416C178.237 10.9195 177.763 10.9195 177.558 11.2416L171.57 20.6373C171.498 20.7494 171.386 20.8301 171.257 20.8628L160.394 23.6064C160.022 23.7005 159.876 24.1473 160.121 24.4405L167.282 32.9909C167.368 33.0929 167.411 33.2235 167.402 33.3558L166.677 44.4471C166.652 44.8274 167.035 45.1036 167.392 44.9626L177.807 40.8514C177.931 40.8023 178.069 40.8023 178.193 40.8514L188.608 44.9626C188.965 45.1036 189.348 44.8274 189.323 44.4471L188.598 33.3558C188.589 33.2235 188.632 33.0929 188.718 32.9909L195.879 24.4405C196.124 24.1473 195.978 23.7005 195.606 23.6064L184.743 20.8628C184.614 20.8301 184.502 20.7494 184.43 20.6373L178.442 11.2416Z" fill="#333333"/>
<rect width="19.4921" height="38.9842" transform="matrix(-0.8221 -0.569343 -0.569343 0.8221 312.22 67.6873)" fill="white"/>
<path d="M287.16 59.701C290.625 60.6333 298.76 69.32 302.395 73.5469C303.796 77.9596 299.783 82.9716 294.29 77.9148C292.767 76.5123 283.786 68.8444 281.541 66.7174C279.296 64.5904 282.829 58.5355 287.16 59.701Z" fill="#C1A87F"/>
<path d="M287.16 59.7007C290.625 60.633 298.76 69.3198 302.394 73.5466C303.796 77.9594 296.054 78.9984 294.29 77.9145C292.525 76.8306 283.786 68.8441 281.541 66.7171C279.295 64.5901 282.828 58.5352 287.16 59.7007Z" fill="#E7CDAC"/>
<path d="M292.379 72.9682L297.573 69.8907L300.597 74.5125C298.522 77.0121 296.062 77.4327 295.091 77.3306L292.379 72.9682Z" fill="#FFF2E2"/>
<path d="M308.295 102.126L309.334 109.868L281.637 112.2L281.759 108.35C280.957 107.708 270.869 95.2416 265.925 89.0888L299.832 85.6494L302.741 81.5777L298.18 76.7516C288.892 81.9814 284.982 79.6728 285.064 77.1055C285.146 74.5383 295.658 67.1637 297.944 68.0072C300.23 68.8507 310.938 71.5035 311.278 72.9276C311.619 74.3517 315.324 83.0775 315.161 88.2116C315.031 92.3188 310.529 99.1994 308.295 102.126Z" fill="#DCC4AA"/>
<rect width="19.4921" height="17.4822" transform="matrix(-0.8221 -0.569343 -0.569343 0.8221 300.105 85.3647)" fill="white"/>
<path d="M269.218 81.9796C271.924 84.4279 278.743 90.6282 281.814 93.4224C283.042 94.5399 284.702 94.4882 287.176 92.2301C289.651 89.9719 288.367 86.7806 286.495 85.1838C284.623 83.5871 280.023 78.2661 274.982 74.141C269.941 70.0159 265.835 78.9194 269.218 81.9796Z" fill="#C0A982"/>
<path d="M269.329 81.2163C271.846 83.4646 278.19 89.1583 281.047 91.7241C282.19 92.7502 283.725 92.7124 286.002 90.6666C288.278 88.6207 287.073 85.7027 285.332 84.2357C283.591 82.7688 279.305 77.8897 274.618 74.0988C269.93 70.308 266.181 78.406 269.329 81.2163Z" fill="#E7CDAC"/>
<path d="M277.799 87.4125L281.672 82.7818L286.062 86.1333C284.938 89.1811 282.758 90.3966 281.808 90.6234L277.799 87.4125Z" fill="#FFF2E2"/>
<path d="M274.776 75.0154C277.897 77.6891 285.761 84.4596 289.303 87.5106C290.72 88.7308 292.59 88.7234 295.314 86.3992C298.039 84.075 296.501 80.6538 294.345 78.9069C292.189 77.1601 286.851 71.3856 281.05 66.8668C275.249 62.348 270.874 71.6732 274.776 75.0154Z" fill="#C0A982"/>
<path d="M274.879 74.2094C277.782 76.6657 285.096 82.8852 288.39 85.688C289.708 86.8089 291.438 86.8126 293.946 84.7079C296.454 82.6032 295.012 79.4741 293.007 77.8686C291.002 76.2632 286.031 70.9663 280.639 66.8121C275.246 62.6579 271.251 71.1391 274.879 74.2094Z" fill="#E7CDAC"/>
<path d="M286.187 82.2763L290.06 77.6456L294.45 80.997C293.326 84.0448 291.146 85.2604 290.196 85.4872L286.187 82.2763Z" fill="#FFF2E2"/>
<path d="M266.727 89.2275C268.807 91.0099 274.05 95.5236 276.412 97.5576C277.356 98.3711 278.603 98.3661 280.419 96.8167C282.236 95.2672 281.21 92.9864 279.773 91.8218C278.335 90.6572 274.777 86.8076 270.91 83.7951C267.042 80.7825 264.126 86.9993 266.727 89.2275Z" fill="#C0A982"/>
<path d="M266.796 88.6894C268.731 90.3269 273.607 94.4733 275.804 96.3418C276.682 97.0891 277.835 97.0916 279.507 95.6884C281.179 94.2853 280.218 92.1992 278.881 91.1289C277.545 90.0586 274.231 86.5273 270.636 83.7579C267.041 80.9884 264.377 86.6426 266.796 88.6894Z" fill="#E7CDAC"/>
<path d="M274.08 93.9755L276.662 90.8883L279.589 93.1226C278.839 95.1545 277.385 95.9649 276.753 96.1161L274.08 93.9755Z" fill="#FFF2E2"/>
<path d="M285.064 77.1058C285.146 74.5385 295.659 67.1639 297.945 68.0074L298.181 76.7518C288.892 81.9817 284.983 79.673 285.064 77.1058Z" fill="#DCC4AA"/>
<path d="M290.121 71.6138C290.909 73.7802 291.028 77.8354 285.205 76.7253C285.359 75.9165 286.558 73.7619 290.121 71.6138Z" fill="#FFF2E2"/>
<path d="M311.04 108.768L311.257 114.042L278.766 117.635L278.689 111.98L311.04 108.768Z" fill="#ADADAD"/>
<path d="M277.805 115.548L292.627 172.901L328.981 172.901L311.679 112.899L277.805 115.548Z" fill="#046470"/>
<circle r="31.5173" transform="matrix(-0.938164 -0.34619 -0.34619 0.938164 319.894 36.3322)" fill="white" stroke="#333333" stroke-width="6"/>
<path d="M330.159 16.7294C330.286 17.023 330.306 17.4942 330.204 17.8304C330.097 18.1748 330.008 18.3713 329.538 19.3247C328.661 21.0905 328.1 22.9618 328.038 24.3021C328.018 24.6896 328.055 24.9876 328.35 26.9517C328.826 30.0877 328.832 30.518 328.415 32.158C327.74 34.8386 327.55 35.8167 327.515 36.8118C327.491 37.5732 327.697 38.7264 328.025 39.6196C328.16 39.9988 328.296 40.3235 328.324 40.3439C328.353 40.3643 328.328 40.4701 328.266 40.593C328.17 40.7724 325.021 45.2454 320.691 51.3621L319.817 52.5984L319.044 52.1326C317.113 50.959 316.296 50.5732 313.75 49.6387C312.38 49.1337 311.102 48.5948 310.063 48.0767C309.211 47.6535 307.039 46.1187 306.145 45.3077C304.18 43.5167 302.31 41.5463 301.816 40.7395C301.281 39.8671 300.966 38.7543 301.064 38.107L301.113 37.7834L301.649 37.2535C302.638 36.2838 302.659 36.262 302.69 36.0176C302.707 35.906 302.717 35.6107 302.712 35.3725C302.7 33.0339 302.785 32.8094 304.135 31.8358C304.834 31.3287 304.836 31.3176 304.804 29.9606C304.778 28.9035 304.822 28.6134 305.049 28.2303C305.363 27.7166 305.564 27.5807 307.102 26.8324L307.64 26.5701L307.838 25.4675C308.083 24.0525 308.132 23.8955 308.461 23.4299C308.694 23.1002 308.763 23.0377 309.082 22.8491C309.783 22.4359 310.874 22.1009 311.548 22.1017C312.548 22.0975 313.377 22.5537 317.305 25.281L320.047 27.1821L320.408 27.2399C320.929 27.3175 321.526 27.2881 321.788 27.1708C322.36 26.9136 322.533 26.2138 322.702 23.4167C322.876 20.7094 322.943 20.4661 323.895 19.1367C324.575 18.1836 325.063 17.6509 325.695 17.177C326.759 16.3719 327.81 15.9279 328.741 15.8812L329.1 15.8633L329.595 16.2134C330.004 16.5023 330.103 16.5905 330.159 16.7294Z" fill="#61767E"/>
<path d="M337.153 45.4834C337.208 45.6516 337.254 45.8757 337.255 45.9878L337.254 46.1909L332.753 52.5578C328.305 58.8505 328.253 58.9247 328.071 59.0064C327.971 59.0526 327.786 59.0951 327.653 59.0997C327.438 59.1147 327.372 59.0933 326.961 58.852C326.718 58.705 325.472 57.8491 324.194 56.9516L321.882 55.3176L321.781 55.0668C321.661 54.772 321.63 54.5526 321.673 54.3353C321.701 54.2072 322.495 53.0499 325.816 48.3338C329.963 42.4403 330.559 41.6319 330.881 41.4574C330.966 41.4065 331.17 41.3717 331.334 41.3763L331.63 41.3874L334.342 43.2862L337.055 45.185L337.153 45.4834Z" fill="#61767E"/>
<path d="M67.8783 62.2417C67.1032 64.9248 63.3568 64.403 61.5806 63.8068C61.4191 62.6889 61.1446 60.4083 61.3383 60.2294C61.5806 60.0058 68.605 60.453 67.8783 62.2417Z" fill="#F1BE89"/>
<path d="M70.4401 59.6167C69.665 62.2998 65.9187 61.778 64.1424 61.1818C63.9809 60.0639 63.7064 57.7833 63.9002 57.6044C64.1424 57.3808 71.1668 57.828 70.4401 59.6167Z" fill="#CE9A6A"/>
<path d="M70.4402 59.1694C69.6651 61.8525 65.9187 61.3308 64.1424 60.7345C63.9809 59.6166 63.7064 57.336 63.9002 57.1571C64.1424 56.9335 71.1668 57.3807 70.4402 59.1694Z" fill="#F1BE89"/>
<path d="M69.9809 57.3589C69.1612 60.4325 65.1998 59.8348 63.3215 59.1518C63.1508 57.8712 62.8605 55.2587 63.0654 55.0538C63.3215 54.7976 70.7492 55.3099 69.9809 57.3589Z" fill="#CE9A6A"/>
<path d="M69.9808 56.847C69.1612 59.9205 65.1998 59.3229 63.3215 58.6399C63.1507 57.3592 62.8605 54.7467 63.0654 54.5418C63.3215 54.2857 70.7492 54.7979 69.9808 56.847Z" fill="#F1BE89"/>
<rect x="49.2385" y="52.0637" width="12.2941" height="30.5305" transform="rotate(-17.5182 49.2385 52.0637)" fill="white"/>
<path d="M40.782 64.0187C40.5771 67.0922 39.6721 81.6915 39.2452 88.6069V89.8874H55.6374V82.9719C57.9425 80.6668 59.9915 75.2881 59.9915 71.9584C59.9915 68.6288 61.2722 66.5798 63.8334 62.2256C65.8825 58.7423 64.6872 57.0178 63.8334 56.591C66.6508 56.591 69.9805 54.7979 67.1631 53.7736C61.7844 51.7246 52.5638 54.542 48.978 56.591C45.3923 58.64 41.0381 60.1768 40.782 64.0187Z" fill="#FFDAB3"/>
<path d="M50.908 68.7676C52.5472 68.7676 53.6401 67.4016 53.9816 66.7185C55.1768 64.1573 57.0037 59.2909 54.7498 60.3154C51.9324 61.596 52.9571 61.3399 50.908 64.4134C49.2688 66.8722 50.225 68.3407 50.908 68.7676Z" fill="#B69577"/>
<path d="M51.4202 68.2556C53.0594 68.2556 54.1522 66.8896 54.4937 66.2066C55.6889 63.6453 57.5159 58.7789 55.2619 59.8034C52.4445 61.084 53.4692 60.8279 51.4202 63.9014C49.781 66.3603 50.7372 67.8287 51.4202 68.2556Z" fill="#D6AE8A"/>
<rect x="37.1965" y="88.3506" width="20.4902" height="12.2941" fill="#ADADAD"/>
<path d="M35.6597 96.0342H58.7111L55.1253 148.796H32.0739L35.6597 96.0342Z" fill="black"/>
<rect x="49.2385" y="52.0637" width="12.2941" height="16.8024" transform="rotate(-17.5182 49.2385 52.0637)" fill="white"/>
<path d="M55.1249 65.299C53.8955 67.5529 51.8806 68.6286 51.0269 68.8848C49.7463 72.9828 59.4791 77.0808 59.4791 74.7757C59.4791 72.4706 59.4791 70.6777 60.7597 68.1164C62.0404 65.5551 67.419 58.1274 63.8333 56.5906C60.2475 55.0539 56.6617 62.4816 55.1249 65.299Z" fill="#FFDAB3"/>
<path d="M63.8332 60.433L60.2474 58.3839C61.272 57.3594 62.5526 56.3349 63.8332 57.3594C64.8577 58.179 64.2601 59.7499 63.8332 60.433Z" fill="#FFF2E2"/>
<circle cx="50.7708" cy="32.7708" r="18.7708" fill="white" stroke="#333333" stroke-width="6"/>
<path d="M49.053 18.9581C48.9139 19.1041 48.7993 19.3787 48.7859 19.5998C48.7742 19.827 48.7841 19.9627 48.8539 20.6294C48.9871 21.8657 48.9106 23.0955 48.6547 23.9022C48.582 24.1359 48.4951 24.3042 47.8913 25.4018C46.9248 27.1535 46.8277 27.4069 46.716 28.4683C46.5302 30.2019 46.4291 30.8222 46.2324 31.4186C46.0806 31.8745 45.7067 32.5118 45.3175 32.9686C45.1552 33.1637 45.004 33.3262 44.9824 33.3319C44.9609 33.3377 44.9527 33.4058 44.9626 33.4921C44.9802 33.6192 45.867 36.9536 47.0935 41.5184L47.3406 42.4408L47.8995 42.3339C49.2986 42.0611 49.8662 42.0112 51.5768 42.0142C52.4978 42.0145 53.3718 41.9748 54.0998 41.8951C54.6965 41.8307 56.3164 41.3967 57.0224 41.1119C58.5765 40.4813 60.113 39.7236 60.5818 39.3542C61.0887 38.9547 61.5183 38.3651 61.6013 37.9606L61.6428 37.7583L61.4417 37.3279C61.0683 36.5382 61.0603 36.5205 61.0957 36.3694C61.11 36.2996 61.1682 36.1226 61.2232 35.9826C61.741 34.6016 61.7401 34.4502 61.1535 33.5793C60.8507 33.1266 60.8521 33.1196 61.1669 32.3235C61.4135 31.7038 61.4507 31.5225 61.3998 31.2462C61.3264 30.8737 61.237 30.7494 60.4903 29.9708L60.2291 29.6981L60.353 29.0025C60.517 28.1117 60.5223 28.0081 60.4292 27.6607C60.3633 27.4147 60.3361 27.3627 60.1885 27.1815C59.8642 26.784 59.2917 26.3475 58.8926 26.2007C58.302 25.98 57.7119 26.069 54.7919 26.825L52.7543 27.3512L52.5277 27.3065C52.2026 27.2387 51.8561 27.091 51.7264 26.9643C51.4442 26.6873 51.4948 26.2355 52.0052 24.5434C52.4933 22.9033 52.507 22.7448 52.2339 21.7503C52.0397 21.0379 51.8673 20.6161 51.5967 20.1977C51.1427 19.4889 50.6181 18.9968 50.0776 18.766L49.8689 18.6769L49.4993 18.7759C49.1944 18.8576 49.1168 18.8883 49.053 18.9581Z" fill="#61767E"/>
<path d="M38.6367 34.4456C38.5678 34.5333 38.4917 34.6558 38.4665 34.7219L38.4228 34.8423L39.6956 39.5924C40.9536 44.2872 40.9684 44.3425 41.058 44.4306C41.1075 44.4799 41.2076 44.5454 41.2854 44.5772C41.4093 44.633 41.4526 44.6346 41.7487 44.5816C41.9245 44.5477 42.8486 44.3132 43.8011 44.0613L45.5257 43.5992L45.6404 43.4729C45.7757 43.3246 45.8417 43.2015 45.8642 43.0637C45.8752 42.9816 45.6585 42.1236 44.723 38.6078C43.5559 34.2149 43.3796 33.6064 43.2275 33.433C43.1881 33.3842 43.0748 33.319 42.9769 33.286L42.7996 33.228L40.7799 33.7593L38.7602 34.2906L38.6367 34.4456Z" fill="#61767E"/>
</g>
<defs>
<clipPath id="clip0_26_440">
<rect width="358" height="118" fill="white"/>
</clipPath>
</defs>
</svg>
