<svg width="358" height="118" viewBox="0 0 358 118" fill="none" xmlns="http://www.w3.org/2000/svg">
<g clip-path="url(#clip0_26_118)">
<rect opacity="0.2" y="1" width="358" height="117" fill="#333333"/>
<path opacity="0.4" d="M150.064 16.6098C141.791 16.6098 138.574 26.3659 138 31.2439C140.757 27.0293 147.191 25.1951 150.064 24.8049V33L165 21.2927L150.064 9V16.6098Z" fill="#333333"/>
<path opacity="0.4" d="M36.6049 88.7212C35.1721 90.0192 27.8574 92.8558 25.4443 93.0481C16.3197 93.8173 15 94.5385 15 98.5769C15 100.067 16.1311 101.942 17.7525 103.144C18.318 103.577 18.3557 104.01 18.0164 106.75C17.8279 108.481 17.6393 110.596 17.6393 111.413C17.6393 112.952 17.677 113 19.3361 113C20.3918 113 21.1082 112.76 21.2213 112.375C21.2967 112.087 21.4852 109.923 21.5984 107.567L21.8623 103.385L24.577 103.577C27.5934 103.817 33.9279 106.221 36.4164 108L38 109.202V98.5769C38 92.7596 37.8869 88 37.6984 88C37.5475 88 37.0574 88.3365 36.6049 88.7212Z" fill="#333333"/>
<path opacity="0.4" d="M351.114 46.0148C350.476 45.376 349.718 44.8693 348.883 44.5236C348.049 44.1779 347.155 44 346.252 44C345.349 44 344.454 44.1779 343.62 44.5236C342.786 44.8693 342.028 45.376 341.389 46.0148L340.064 47.3398L338.739 46.0148C337.449 44.7252 335.7 44.0007 333.877 44.0007C332.053 44.0007 330.304 44.7252 329.014 46.0148C327.724 47.3044 327 49.0535 327 50.8773C327 52.7011 327.724 54.4502 329.014 55.7398L330.339 57.0648L340.064 66.7898L349.789 57.0648L351.114 55.7398C351.753 55.1013 352.26 54.3433 352.605 53.509C352.951 52.6747 353.129 51.7804 353.129 50.8773C353.129 49.9742 352.951 49.0799 352.605 48.2456C352.26 47.4113 351.753 46.6532 351.114 46.0148V46.0148Z" fill="#333333"/>
<g clip-path="url(#clip1_26_118)">
<rect x="21" y="21" width="46" height="47" fill="white"/>
<path d="M62.0516 57.7292L62.0519 57.7273C62.7501 57.7263 63.4117 57.5477 63.8162 57.0607C64.2382 56.5527 64.2544 55.868 64.0046 55.152C63.7792 54.4336 63.2678 53.6034 62.6037 52.7073C61.9301 51.7985 61.0668 50.7797 60.1018 49.6838C59.5618 49.0553 58.8911 48.3955 58.3098 47.8242C57.7073 47.2323 57.2314 46.7634 57.0193 46.4758L57.0172 46.473C56.7123 46.0655 56.6825 45.8839 56.6911 45.7734C56.7027 45.6233 56.7877 45.4508 57.0357 45.0391L57.0413 45.0312L57.0881 44.9647C57.129 44.9065 57.189 44.821 57.2654 44.7113C57.4183 44.492 57.637 44.1761 57.9013 43.7888C58.4295 43.0147 59.1402 41.9543 59.8692 40.8108C60.5975 39.6684 61.3475 38.4376 61.9524 37.3238C62.5424 36.2375 63.0234 35.2113 63.1865 34.4787C63.3487 33.9469 63.3924 33.3481 63.0563 32.8688C62.7101 32.3751 62.0889 32.1869 61.3502 32.1869H56.8397C56.1727 32.1869 55.6473 32.3689 55.2393 32.6773C54.8388 32.9801 54.5881 33.3772 54.417 33.7489L54.413 33.7576L54.4093 33.7665L54.4093 33.7665L54.4091 33.7671L54.408 33.7696L54.4034 33.7808L54.3841 33.8264C54.3669 33.8669 54.341 33.9274 54.3068 34.0061C54.2382 34.1634 54.1364 34.3931 54.0039 34.6806C53.7387 35.2557 53.3515 36.0608 52.8642 36.9781C51.8882 38.8151 50.5235 41.0778 48.9467 42.8488C48.4288 43.3673 48.0783 43.6814 47.8016 43.8674C47.5579 44.0312 47.3964 44.0787 47.2458 44.0845C47.2329 44.0753 47.2093 44.0544 47.1794 44.0107C47.1095 43.9083 47.0167 43.6866 47.0167 43.2734V34.3028C47.0167 33.7082 46.9286 33.1553 46.6179 32.7485C46.282 32.3085 45.7759 32.1482 45.205 32.1482H38.1119C37.1367 32.1482 36.4823 32.9006 36.4823 33.6983C36.4823 34.1103 36.6406 34.4297 36.8241 34.6987C36.9132 34.8292 37.015 34.9575 37.111 35.078L37.1258 35.0967C37.2199 35.2147 37.3127 35.3311 37.4062 35.46C37.7792 35.9737 38.1865 36.7123 38.2687 38.132V44.7672C38.2687 45.4932 38.1965 45.7982 38.1297 45.9188C38.1174 45.9411 38.1092 45.9491 38.1078 45.9504L38.1077 45.9506C38.1069 45.9513 38.1063 45.9519 38.1032 45.9533C38.0919 45.9584 38.0507 45.9722 37.9414 45.9722C37.8929 45.9722 37.7662 45.9448 37.5471 45.8001C37.3372 45.6615 37.0868 45.4448 36.8025 45.1458C36.2348 44.5489 35.577 43.6724 34.8873 42.5804C33.5097 40.3994 32.04 37.4146 30.937 34.2302L30.9371 34.2302L30.9345 34.2231C30.709 33.6027 30.4567 33.067 30.0563 32.6964C29.6299 32.3016 29.099 32.1482 28.4457 32.1482H23.9352C23.2325 32.1482 22.6922 32.3191 22.3376 32.6937C21.9865 33.0646 21.9123 33.5366 21.9123 33.9192C21.9123 34.2939 22.0233 34.9449 22.2569 35.8019C22.4942 36.6729 22.868 37.7916 23.4168 39.1157C24.5144 41.7638 26.3156 45.242 29.1366 49.212C32.9237 54.6944 38.3612 57.6905 43.3315 57.6905C44.7757 57.6905 45.7236 57.5342 46.3078 57.1417C46.9706 56.6964 47.0613 56.0334 47.0613 55.4448V51.378C47.0613 51.0723 47.0775 50.8537 47.1079 50.6958C47.1382 50.5385 47.1766 50.474 47.1976 50.4481C47.221 50.4192 47.296 50.3435 47.7528 50.3435C48.1978 50.3435 49.2512 50.5556 51.9016 53.1242C52.6586 53.8915 53.2595 54.5509 53.7638 55.1115C53.8391 55.1952 53.9125 55.2771 53.9843 55.357C54.3895 55.8086 54.7401 56.1994 55.0597 56.5184C55.4376 56.8956 55.8011 57.2031 56.2043 57.4129C56.6182 57.6283 57.0508 57.7292 57.5508 57.7292H62.0516ZM47.2565 44.091C47.2565 44.091 47.2562 44.0908 47.2556 44.0906L47.2565 44.091ZM33.4832 13.5H52.5152C61.1873 13.5 66.3572 14.5434 69.4021 17.5834C72.4467 20.6232 73.5002 25.793 73.5002 34.4849V53.517C73.5002 62.2098 72.4567 67.3792 69.417 70.4188C66.3774 73.4584 61.208 74.5019 52.5152 74.5019H33.4832C24.7904 74.5019 19.621 73.4584 16.5813 70.4188C13.5417 67.3792 12.4982 62.2098 12.4982 53.517V34.4849C12.4982 25.7921 13.5417 20.6227 16.5813 17.5831C19.621 14.5435 24.7904 13.5 33.4832 13.5Z" fill="#0077FF" stroke="#0251AB"/>
</g>
<rect x="82.5" y="45.5" width="61" height="61" rx="14.5" fill="#E37E36" stroke="#CA631A"/>
<path d="M111.175 75.464L111.176 75.4643C112.22 75.6295 114.064 75.6292 115.13 75.4646C119.892 74.7411 123.898 71.215 125.241 66.5767C125.93 64.2235 125.878 61.4935 125.112 59.16C123.667 54.7556 119.991 51.5469 115.394 50.6876C115.01 50.6146 114.336 50.5579 113.708 50.5269C113.084 50.4961 112.433 50.487 112.105 50.5256L112.104 50.5256C108.868 50.9099 106.331 52.1221 104.188 54.3248L104.188 54.3253C102.22 56.3534 101.082 58.7336 100.721 61.5653L111.175 75.464ZM111.175 75.464C108.188 74.9819 105.318 73.3243 103.43 70.9801M111.175 75.464L103.43 70.9801M120.585 86.5322C120.635 86.5165 120.686 86.5005 120.737 86.4845L120.741 86.4834C123.014 85.7593 125.518 84.531 127.22 83.2798C127.72 82.916 128.104 82.5075 128.358 82.017C128.613 81.5253 128.722 80.9841 128.722 80.3813C128.722 80.0812 128.715 79.8467 128.672 79.6217C128.629 79.3896 128.553 79.1913 128.448 78.9556L128.445 78.9488L128.445 78.9488C128.26 78.5497 127.964 78.1655 127.635 77.8511C127.308 77.5387 126.917 77.2667 126.522 77.1206C125.868 76.8747 125.212 76.8155 124.539 76.9501L124.536 76.9508C123.953 77.0713 123.606 77.2651 122.429 78.009L122.428 78.0097C120.299 79.3619 117.582 80.2877 114.93 80.5529L114.929 80.5531C113.773 80.6726 111.35 80.5989 110.349 80.4257C107.806 79.9749 105.646 79.1241 103.42 77.6969C103.164 77.5319 102.902 77.3808 102.667 77.2619C102.445 77.1491 102.214 77.0476 102.028 77.0039C101.675 76.9172 101.241 76.9024 100.843 76.9325C100.447 76.9626 100.027 77.0418 99.7105 77.1811L99.7097 77.1815C99.3474 77.342 98.9895 77.6144 98.6892 77.9181C98.3881 78.2226 98.1167 78.5873 97.9465 78.9574C97.8392 79.1891 97.7582 79.3846 97.7123 79.6226C97.6682 79.851 97.6609 80.0965 97.6609 80.4226V80.4291H97.6609C97.665 80.7467 97.675 80.9893 97.7174 81.2091C97.7623 81.442 97.839 81.6273 97.9424 81.8387C98.1225 82.2123 98.3089 82.5106 98.5841 82.7971C98.8517 83.0755 99.1866 83.3251 99.6357 83.6231L99.6361 83.6234C101.456 84.8284 103.924 85.9948 105.792 86.5464C105.622 86.7209 105.418 86.9304 105.183 87.1694C104.455 87.9104 103.445 88.9295 102.326 90.0482L102.326 90.0485C102.151 90.2237 101.982 90.3922 101.82 90.5544C99.8301 92.5474 98.7949 93.584 98.2683 94.2643C97.9729 94.6462 97.8019 94.9589 97.7216 95.2997C97.657 95.5737 97.6587 95.8496 97.6604 96.1171C97.6606 96.159 97.6609 96.2007 97.6609 96.2421C97.6609 96.5767 97.6684 96.8283 97.7075 97.0529C97.7493 97.2921 97.8229 97.4798 97.9228 97.6932C98.2527 98.401 98.9319 99.0817 99.6263 99.4047C100.418 99.7757 101.555 99.8215 102.38 99.5206L102.209 99.0508L102.379 99.521C102.726 99.3954 102.969 99.2259 103.707 98.5283C104.451 97.8253 105.754 96.5263 108.227 94.062L108.241 94.0481L108.278 94.0106L108.278 94.0106L113.154 89.1499L117.94 93.9197C117.94 93.9197 117.94 93.9197 117.94 93.9197C118.136 94.1157 118.326 94.3049 118.509 94.4875C121.027 96.999 122.31 98.2789 123.099 98.9279C123.527 99.2807 123.856 99.4869 124.194 99.5923C124.474 99.6798 124.744 99.6878 124.992 99.6952C125.033 99.6964 125.073 99.6976 125.112 99.6991C125.112 99.6991 125.113 99.6991 125.113 99.6992L125.133 99.1995L120.585 86.5322ZM120.585 86.5322C120.754 86.7068 120.959 86.9176 121.195 87.1586C121.914 87.8926 122.91 88.9015 124.009 90.0081L120.585 86.5322ZM103.43 70.9801C102.718 70.0964 102.359 69.5176 101.832 68.4123M103.43 70.9801L101.832 68.4123M101.832 68.4123C100.808 66.2776 100.42 63.9089 100.721 61.5654L101.832 68.4123ZM128.641 95.3848C128.959 96.6396 128.578 97.9003 127.611 98.7903L127.842 94.6808C127.941 94.8461 128.082 95.2095 128.156 95.5069L128.641 95.3839C128.641 95.3842 128.641 95.3845 128.641 95.3848Z" fill="white" stroke="#CA631A"/>
<path d="M112.325 57.5451L112.324 57.5452C110.492 57.7961 108.956 58.872 108.106 60.4952C107.033 62.5512 107.413 65.1592 109.022 66.8216L109.023 66.8228C110.742 68.6095 113.264 69.0326 115.572 67.9017L115.576 67.8997C116.077 67.6603 116.304 67.4869 116.894 66.9055C117.212 66.5869 117.391 66.3907 117.529 66.2025C117.665 66.0178 117.771 65.8265 117.928 65.5047L117.929 65.5034C118.35 64.646 118.514 63.9283 118.514 63.0142C118.514 61.7812 118.123 60.6394 117.344 59.6162L117.342 59.6133C116.238 58.1419 114.172 57.2889 112.325 57.5451Z" fill="#E37E36" stroke="#CA631A"/>
<path d="M234.5 142V100H186L267 19L348 100H303V142H234.5Z" fill="#333333"/>
<path d="M220.5 136V94H172L253 13L334 94H289V136H220.5Z" fill="white"/>
<rect x="158" y="27" width="50" height="50" rx="15" fill="white"/>
<path d="M204.085 40.7301L205.021 39.3037L203.463 39.9992C202.611 40.3793 201.719 40.6891 200.785 40.9282C201.798 39.9349 202.541 38.7099 203.012 37.2599L203.417 36.0113L202.284 36.6738C200.665 37.6205 199.004 38.2679 197.3 38.6203C195.594 36.8752 193.467 36 190.952 36C188.478 36 186.353 36.8801 184.604 38.6289C182.855 40.3776 181.975 42.5029 181.975 44.9766C181.975 45.4882 182.003 45.9543 182.062 46.3717C178.9 46.1192 175.926 45.2771 173.137 43.8455C170.157 42.3158 167.628 40.2739 165.547 37.7181L165.089 37.1569L164.726 37.783C163.903 39.2021 163.488 40.7145 163.488 42.3125C163.488 44.8882 164.317 47.0099 165.972 48.6455C165.289 48.4796 164.578 48.2237 163.838 47.8746L163.125 47.5381V48.3268V48.4076C163.125 50.5482 163.842 52.4589 165.263 54.1211C166.173 55.1862 167.223 55.9949 168.41 56.5427C168.099 56.5309 167.649 56.4819 167.051 56.3899L166.242 56.2654L166.501 57.0422C167.098 58.8338 168.161 60.3158 169.678 61.4789C170.834 62.3648 172.113 62.9243 173.506 63.1558C170.748 64.994 167.7 65.9102 164.352 65.9102C163.671 65.9102 163.019 65.8709 162.395 65.7929L162.065 66.7111C166.127 69.2911 170.553 70.5833 175.331 70.5833C178.398 70.5833 181.282 70.097 183.978 69.1205C186.663 68.1476 188.978 66.8413 190.912 65.1967C192.833 63.5642 194.486 61.6844 195.871 59.5588C197.256 57.4341 198.286 55.2096 198.96 52.886C199.632 50.569 199.969 48.255 199.969 45.9453C199.969 45.6131 199.963 45.3284 199.949 45.0952C201.592 43.8815 202.972 42.426 204.085 40.7301ZM213.5 32.625V71.375C213.5 74.444 212.416 77.0551 210.236 79.2356C208.055 81.4162 205.444 82.5 202.375 82.5H195.452H183H163.625C160.556 82.5 157.945 81.4162 155.764 79.2356C153.584 77.0551 152.5 74.444 152.5 71.375V32.625C152.5 29.556 153.584 26.9449 155.764 24.7644C157.945 22.5838 160.556 21.5 163.625 21.5H202.375C205.444 21.5 208.055 22.5838 210.236 24.7644C212.416 26.9449 213.5 29.556 213.5 32.625Z" fill="#74939E" stroke="#52707B"/>
</g>
<defs>
<clipPath id="clip0_26_118">
<rect width="358" height="118" fill="white"/>
</clipPath>
<clipPath id="clip1_26_118">
<rect width="62" height="62" fill="white" transform="translate(12 13)"/>
</clipPath>
</defs>
</svg>
