<svg width="185" height="48" viewBox="0 0 185 48" fill="none" xmlns="http://www.w3.org/2000/svg">
<g opacity="0.3">
<path d="M62.7775 34.1766L59.7063 39.873C59.4627 40.3271 59.1763 40.6661 58.8472 40.8899C58.518 41.1136 58.1592 41.2255 57.7707 41.2255C57.4679 41.2255 57.1585 41.1564 56.8425 41.0182L57.0992 40.2284C57.3428 40.314 57.5601 40.3568 57.751 40.3568C58.1855 40.3568 58.5443 40.1264 58.8274 39.6657L58.9854 39.4189L56.2006 34.1766H57.2572L59.4989 38.56L61.7999 34.1766H62.7775Z" fill="white"/>
<path d="M68.1078 37.5036C68.5753 37.6155 68.9275 37.8163 69.1645 38.1059C69.4081 38.3889 69.5299 38.7541 69.5299 39.2017C69.5299 39.8006 69.3093 40.2646 68.8682 40.5937C68.4337 40.9228 67.7984 41.0873 66.9623 41.0873H63.8022V34.1766H66.7747C67.5318 34.1766 68.121 34.3313 68.5424 34.6406C68.9703 34.9434 69.1843 35.3811 69.1843 35.9537C69.1843 36.3288 69.0888 36.648 68.8979 36.9113C68.7135 37.1746 68.4502 37.372 68.1078 37.5036ZM64.7799 37.2173H66.7055C67.1861 37.2173 67.5515 37.1219 67.8017 36.931C68.0585 36.7402 68.1868 36.4605 68.1868 36.0919C68.1868 35.7233 68.0585 35.4436 67.8017 35.2527C67.5449 35.0553 67.1796 34.9566 66.7055 34.9566H64.7799V37.2173ZM66.9426 40.3074C68.0025 40.3074 68.5325 39.9125 68.5325 39.1227C68.5325 38.7278 68.3975 38.4382 68.1276 38.2539C67.8643 38.0631 67.4692 37.9676 66.9426 37.9676H64.7799V40.3074H66.9426Z" fill="white"/>
<path d="M76.1964 40.2284V41.0873H71.1798V34.1766H76.0582V35.0355H72.1673V37.1581H75.6336V37.9973H72.1673V40.2284H76.1964Z" fill="white"/>
<path d="M83.396 34.1766V41.0873H82.4282V35.0355H79.3668L79.2977 37.0594C79.2648 38.0137 79.1858 38.787 79.0607 39.3794C78.9422 39.9717 78.7513 40.4193 78.4879 40.722C78.2246 41.0182 77.8691 41.1663 77.4214 41.1663C77.2173 41.1663 77.0099 41.14 76.7992 41.0873L76.8684 40.2087C76.9737 40.235 77.079 40.2482 77.1844 40.2482C77.4675 40.2482 77.6946 40.1363 77.8658 39.9125C78.0369 39.6821 78.1653 39.3399 78.2509 38.8858C78.3365 38.4316 78.3925 37.8327 78.4188 37.089L78.5274 34.1766H83.396Z" fill="white"/>
<path d="M85.5492 34.1766H86.5268V39.5077L90.6152 34.1766H91.5238V41.0873H90.556V35.7661L86.4577 41.0873H85.5492V34.1766Z" fill="white"/>
<path d="M98.6015 34.1766V41.0873H97.6239V38.3527C96.8931 38.6357 96.2183 38.7772 95.5994 38.7772C94.7567 38.7772 94.1017 38.5731 93.6342 38.1651C93.1734 37.757 92.943 37.1746 92.943 36.4177V34.1766H93.9107V36.3091C93.9107 36.8224 94.0655 37.2173 94.3749 37.4938C94.6909 37.7702 95.1353 37.9084 95.7081 37.9084C96.3467 37.9084 96.9853 37.7636 97.6239 37.474V34.1766H98.6015Z" fill="white"/>
<path d="M105.774 40.2284V41.0873H100.758V34.1766H105.636V35.0355H101.745V37.1581H105.211V37.9973H101.745V40.2284H105.774Z" fill="white"/>
<path d="M113.27 34.1766V41.0873H112.283V38.0071H108.313V41.0873H107.325V34.1766H108.313V37.1482H112.283V34.1766H113.27Z" fill="white"/>
<path d="M115.426 34.1766H116.404V39.5077L120.492 34.1766H121.401V41.0873H120.433V35.7661L116.334 41.0873H115.426V34.1766Z" fill="white"/>
<path d="M128.572 40.2284V41.0873H123.556V34.1766H128.434V35.0355H124.543V37.1581H128.01V37.9973H124.543V40.2284H128.572Z" fill="white"/>
<path d="M138.73 34.1766V41.0873H137.762V35.0355H133.753V41.0873H132.775V34.1766H138.73Z" fill="white"/>
<path d="M143.582 34.1766C144.477 34.1766 145.182 34.3905 145.695 34.8183C146.209 35.2461 146.465 35.8352 146.465 36.5855C146.465 37.3358 146.209 37.9249 145.695 38.3527C145.182 38.7805 144.477 38.9944 143.582 38.9944H141.873V41.0873H140.886V34.1766H143.582ZM143.552 38.1355C144.178 38.1355 144.655 38.0038 144.984 37.7406C145.313 37.4707 145.478 37.0857 145.478 36.5855C145.478 36.0853 145.313 35.7036 144.984 35.4403C144.655 35.1705 144.178 35.0355 143.552 35.0355H141.873V38.1355H143.552Z" fill="white"/>
<path d="M151.046 41.1663C150.348 41.1663 149.72 41.0149 149.16 40.7122C148.6 40.4028 148.159 39.9783 147.837 39.4386C147.521 38.8989 147.363 38.2967 147.363 37.632C147.363 36.9672 147.521 36.365 147.837 35.8253C148.159 35.2856 148.6 34.8644 149.16 34.5617C149.72 34.2523 150.348 34.0977 151.046 34.0977C151.738 34.0977 152.363 34.2523 152.923 34.5617C153.482 34.8644 153.92 35.2856 154.236 35.8253C154.552 36.3584 154.71 36.9607 154.71 37.632C154.71 38.3033 154.552 38.9088 154.236 39.4485C153.92 39.9816 153.482 40.4028 152.923 40.7122C152.363 41.0149 151.738 41.1663 151.046 41.1663ZM151.046 40.2877C151.553 40.2877 152.007 40.1725 152.409 39.9421C152.817 39.7118 153.137 39.3958 153.367 38.9944C153.604 38.5863 153.722 38.1322 153.722 37.632C153.722 37.1318 153.604 36.6809 153.367 36.2795C153.137 35.8714 152.817 35.5522 152.409 35.3218C152.007 35.0915 151.553 34.9763 151.046 34.9763C150.539 34.9763 150.078 35.0915 149.664 35.3218C149.256 35.5522 148.933 35.8714 148.696 36.2795C148.466 36.6809 148.35 37.1318 148.35 37.632C148.35 38.1322 148.466 38.5863 148.696 38.9944C148.933 39.3958 149.256 39.7118 149.664 39.9421C150.078 40.1725 150.539 40.2877 151.046 40.2877Z" fill="white"/>
<path d="M162.7 40.2284V42.5978H161.782V41.0873H156.094L156.084 42.5978H155.166L155.175 40.2284H155.511C155.946 40.2021 156.252 39.8599 156.43 39.2017C156.607 38.5369 156.716 37.6024 156.755 36.3979L156.825 34.1766H161.683V40.2284H162.7ZM157.624 36.4868C157.592 37.4609 157.513 38.2671 157.387 38.9055C157.269 39.5439 157.075 39.9849 156.805 40.2284H160.706V35.0355H157.674L157.624 36.4868Z" fill="white"/>
<path d="M168.573 39.3596H164.899L164.139 41.0873H163.122L166.252 34.1766H167.23L170.37 41.0873H169.333L168.573 39.3596ZM168.227 38.5699L166.736 35.1836L165.245 38.5699H168.227Z" fill="white"/>
<path d="M177.042 38.0466H175.728V41.0873H174.761V38.0466H173.437L171.502 41.0873H170.346L172.628 37.4938L170.514 34.1766H171.571L173.418 37.1778H174.761V34.1766H175.728V37.1778H177.052L178.908 34.1766H179.965L177.852 37.5135L180.133 41.0873H178.977L177.042 38.0466Z" fill="white"/>
</g>
<path d="M70.3192 29.8808H67.3148V25.8983H59.6479V29.8697H56.5544L56.3764 23.184H57.4558C57.9306 22.7465 58.3052 22.0419 58.5797 21.0704C58.8541 20.0989 59.047 18.827 59.1583 17.2548L59.6145 9.7014H68.9283V23.184H70.6086L70.3192 29.8808ZM60.9721 23.184H65.6679V12.4268H62.7302L62.4632 16.8877C62.2777 19.5649 61.7807 21.6637 60.9721 23.184Z" fill="white"/>
<path d="M83.4387 19.2571C83.4387 21.4301 82.9231 23.1173 81.8919 24.3187C80.8682 25.5201 79.4439 26.1208 77.6189 26.1208C75.8014 26.1208 74.3734 25.5275 73.3348 24.3409C72.2962 23.1469 71.7695 21.4783 71.7547 19.335V16.5651C71.7547 14.3402 72.2703 12.6048 73.3014 11.3589C74.3326 10.1056 75.7643 9.47892 77.5967 9.47892C79.3993 9.47892 80.82 10.0945 81.8585 11.3255C82.8971 12.5492 83.4238 14.2698 83.4387 16.4872V19.2571ZM80.156 16.5428C80.156 15.0818 79.9483 13.9954 79.5329 13.2834C79.1174 12.5715 78.472 12.2155 77.5967 12.2155C76.7287 12.2155 76.087 12.5603 75.6716 13.25C75.2562 13.9323 75.041 14.9743 75.0262 16.376V19.2571C75.0262 20.6736 75.2376 21.7193 75.6605 22.3942C76.0833 23.0616 76.7361 23.3954 77.6189 23.3954C78.472 23.3954 79.1063 23.0691 79.5217 22.4164C79.9372 21.7564 80.1486 20.7367 80.156 19.3573V16.5428Z" fill="white"/>
<path d="M90.0596 9.7014L93.1196 21.4152L96.1686 9.7014H100.442V25.8983H97.1589V21.5154L97.4594 14.7629L94.2213 25.8983H91.9958L88.7576 14.7629L89.0581 21.5154V25.8983H85.7866V9.7014H90.0596Z" fill="white"/>
<path d="M119.314 20.5031C119.232 22.3497 118.713 23.7476 117.756 24.6969C116.799 25.6462 115.449 26.1208 113.706 26.1208C111.873 26.1208 110.468 25.5201 109.488 24.3187C108.516 23.1098 108.031 21.3893 108.031 19.157V16.4316C108.031 14.2067 108.535 12.4936 109.544 11.2922C110.553 10.0833 111.955 9.47892 113.75 9.47892C115.516 9.47892 116.855 9.97209 117.767 10.9584C118.687 11.9448 119.21 13.3613 119.336 15.2079H116.054C116.024 14.0658 115.846 13.2797 115.519 12.8496C115.2 12.412 114.611 12.1932 113.75 12.1932C112.875 12.1932 112.255 12.501 111.892 13.1165C111.528 13.7247 111.335 14.7296 111.313 16.1312V19.1904C111.313 20.7997 111.491 21.9047 111.847 22.5054C112.211 23.1061 112.83 23.4065 113.706 23.4065C114.566 23.4065 115.16 23.1988 115.486 22.7835C115.812 22.3608 115.998 21.6007 116.042 20.5031H119.314Z" fill="white"/>
<path d="M129.062 22.5833H124.6L123.732 25.8983H120.271L125.334 9.7014H128.327L133.424 25.8983H129.93L129.062 22.5833ZM125.312 19.8579H128.338L126.825 14.0844L125.312 19.8579Z" fill="white"/>
<path d="M142.882 9.7014H146.154V25.8983H142.882V15.1745L138.108 25.8983H134.826V9.7014H138.108V20.4363L142.882 9.7014ZM144.373 5.42969C144.373 6.41604 144.017 7.21328 143.305 7.8214C142.6 8.42953 141.669 8.73359 140.512 8.73359C139.347 8.73359 138.409 8.42953 137.697 7.8214C136.992 7.21328 136.64 6.41604 136.64 5.42969H138.943C138.943 5.88949 139.08 6.24917 139.355 6.50874C139.637 6.76089 140.022 6.88697 140.512 6.88697C140.994 6.88697 141.372 6.76089 141.647 6.50874C141.921 6.24917 142.059 5.88949 142.059 5.42969H144.373Z" fill="white"/>
<path d="M159.262 12.4268H155.256V25.8983H151.973V12.4268H148.034V9.7014H159.262V12.4268Z" fill="white"/>
<path d="M172.237 19.2571C172.237 21.4301 171.721 23.1173 170.69 24.3187C169.666 25.5201 168.242 26.1208 166.417 26.1208C164.599 26.1208 163.171 25.5275 162.133 24.3409C161.094 23.1469 160.568 21.4783 160.553 19.335V16.5651C160.553 14.3402 161.068 12.6048 162.099 11.3589C163.131 10.1056 164.562 9.47892 166.395 9.47892C168.197 9.47892 169.618 10.0945 170.657 11.3255C171.695 12.5492 172.222 14.2698 172.237 16.4872V19.2571ZM168.954 16.5428C168.954 15.0818 168.746 13.9954 168.331 13.2834C167.915 12.5715 167.27 12.2155 166.395 12.2155C165.527 12.2155 164.885 12.5603 164.47 13.25C164.054 13.9323 163.839 14.9743 163.824 16.376V19.2571C163.824 20.6736 164.036 21.7193 164.458 22.3942C164.881 23.0616 165.534 23.3954 166.417 23.3954C167.27 23.3954 167.904 23.0691 168.32 22.4164C168.735 21.7564 168.947 20.7367 168.954 19.3573V16.5428Z" fill="white"/>
<path d="M174.585 25.8983V9.7014H179.592C181.283 9.7014 182.567 10.0796 183.442 10.8361C184.325 11.5851 184.766 12.6864 184.766 14.14C184.766 14.9632 184.585 15.6714 184.221 16.2647C183.858 16.858 183.361 17.2919 182.73 17.5663C183.457 17.7739 184.017 18.1929 184.41 18.8233C184.803 19.4463 185 20.2175 185 21.1371C185 22.7094 184.566 23.896 183.698 24.6969C182.838 25.4979 181.588 25.8983 179.948 25.8983H174.585ZM177.856 18.8567V23.184H179.948C180.534 23.184 180.979 23.0023 181.283 22.6389C181.588 22.2755 181.74 21.7601 181.74 21.0926C181.74 19.6391 181.213 18.8937 180.159 18.8567H177.856ZM177.856 16.4761H179.559C180.842 16.4761 181.484 15.8123 181.484 14.4848C181.484 13.7506 181.335 13.2241 181.039 12.9052C180.742 12.5863 180.26 12.4268 179.592 12.4268H177.856V16.4761Z" fill="white"/>
<path fill-rule="evenodd" clip-rule="evenodd" d="M23.7264 0.59247C22.3322 -0.19749 20.6255 -0.19749 19.2314 0.59247L10.7394 5.40428L2.32507 10.3504C0.943673 11.1625 0.0903286 12.6401 0.0775905 14.242L0 24L0.0775905 33.758C0.0903286 35.3599 0.943672 36.8375 2.32507 37.6496L10.7394 42.5957L19.2314 47.4075C20.6255 48.1975 22.3322 48.1975 23.7264 47.4075L32.2183 42.5957L40.6327 37.6496C42.0141 36.8375 42.8674 35.3599 42.8802 33.758L42.9578 24L42.8802 14.242C42.8674 12.6401 42.0141 11.1625 40.6327 10.3504L32.2183 5.40428L23.7264 0.59247ZM24.1376 25.1119L37.6476 17.3142C38.7376 16.6851 39.111 15.2918 38.4817 14.2021C37.8524 13.1124 36.4586 12.7391 35.3686 13.3682L22.0041 21.0819L8.63947 13.3682C7.54948 12.7391 6.15571 13.1124 5.5264 14.2021C4.89709 15.2917 5.27055 16.6851 6.36054 17.3142L19.5798 24.9441V39.568C19.5798 40.8263 20.6001 41.8463 21.8587 41.8463C23.1173 41.8463 24.1376 40.8263 24.1376 39.568V25.1119Z" fill="white"/>
</svg>
