<svg width="71" height="70" viewBox="0 0 71 70" fill="none" xmlns="http://www.w3.org/2000/svg">
<g opacity="0.3">
<path d="M60.9309 33.4083C61.7317 39.2036 60.6922 45.1041 57.9592 50.2769C55.2261 55.4497 50.9374 59.6334 45.6985 62.2376C40.4597 64.8417 34.5352 65.7347 28.7615 64.7906C22.9878 63.8464 17.6564 61.1128 13.5199 56.9755C9.38349 52.8382 6.65088 47.5063 5.70785 41.7324C4.76482 35.9585 5.65901 30.0343 8.26418 24.7959C10.8694 19.5576 15.0539 15.2697 20.2272 12.5376C25.4005 9.80553 31.3012 8.7672 37.0964 9.56921L35.3138 11.3518C34.6648 12 34.1499 12.7698 33.7985 13.6171C33.4471 14.4644 33.2662 15.3727 33.266 16.29C29.1236 16.29 25.0743 17.5183 21.63 19.8197C18.1858 22.1211 15.5013 25.3921 13.9161 29.2191C12.3309 33.0462 11.9161 37.2573 12.7242 41.3201C13.5324 45.3829 15.5271 49.1148 18.4562 52.0439C21.3853 54.9729 25.1172 56.9677 29.18 57.7758C33.2427 58.584 37.4539 58.1692 41.2809 56.584C45.108 54.9988 48.379 52.3143 50.6804 48.87C52.9818 45.4258 54.2101 41.3765 54.2101 37.2341C56.0611 37.2325 57.8356 36.4959 59.1436 35.1862L60.9309 33.4083Z" fill="#333333"/>
<path d="M51.4921 5.6865C51.7478 6.06996 51.8838 6.52069 51.883 6.98156V18.6172H63.5186C63.9795 18.6164 64.4302 18.7524 64.8137 19.0081C65.1971 19.2637 65.496 19.6275 65.6725 20.0532C65.849 20.4789 65.8951 20.9475 65.805 21.3995C65.7148 21.8514 65.4925 22.2665 65.1662 22.5919L55.8577 31.9004C55.6412 32.1164 55.3842 32.2876 55.1015 32.4042C54.8188 32.5208 54.5159 32.5805 54.2101 32.58H41.2108L37.762 36.0288C37.9332 36.6686 37.9659 37.3376 37.8579 37.9911C37.7499 38.6446 37.5036 39.2675 37.1356 39.8182C36.7675 40.3689 36.2862 40.8347 35.7237 41.1845C35.1612 41.5343 34.5305 41.76 33.8738 41.8465C33.2172 41.933 32.5496 41.8783 31.9157 41.6862C31.2818 41.494 30.6962 41.1688 30.1981 40.7322C29.7 40.2956 29.3008 39.7577 29.0273 39.1545C28.7537 38.5513 28.612 37.8966 28.6117 37.2342C28.6127 36.5204 28.7776 35.8164 29.0937 35.1764C29.4097 34.5363 29.8684 33.9774 30.4345 33.5426C31.0006 33.1078 31.659 32.8087 32.3589 32.6685C33.0587 32.5282 33.7815 32.5505 34.4714 32.7336L37.9202 29.2894V16.2901C37.9197 15.9843 37.9794 15.6813 38.096 15.3986C38.2126 15.1159 38.3838 14.859 38.5997 14.6425L47.9082 5.33395C48.2337 5.00766 48.6487 4.78535 49.1007 4.69521C49.5527 4.60508 50.0212 4.65117 50.447 4.82764C50.8727 5.00412 51.2365 5.30304 51.4921 5.6865Z" fill="#333333"/>
<path d="M33.266 20.9441C30.0441 20.9441 26.8947 21.8995 24.2158 23.6894C21.5369 25.4794 19.449 28.0235 18.2161 31.0001C16.9831 33.9767 16.6605 37.2521 17.2891 40.412C17.9176 43.5719 19.4691 46.4745 21.7473 48.7527C24.0255 51.0309 26.928 52.5823 30.088 53.2109C33.2479 53.8394 36.5233 53.5168 39.4998 52.2839C42.4764 51.0509 45.0206 48.963 46.8105 46.2842C48.6005 43.6053 49.5559 40.4558 49.5559 37.234H43.1377L42.5559 37.8158C42.444 39.6038 41.8185 41.3216 40.7545 42.7629C39.6905 44.2042 38.2331 45.3079 36.5573 45.9415C34.8816 46.575 33.0586 46.7115 31.3071 46.3346C29.5557 45.9577 27.9502 45.0833 26.6834 43.8165C25.4166 42.5497 24.5423 40.9443 24.1654 39.1928C23.7884 37.4414 23.9249 35.6184 24.5585 33.9426C25.192 32.2669 26.2957 30.8095 27.7371 29.7455C29.1784 28.6815 30.8962 28.056 32.6842 27.9441L33.266 27.3623V20.9441Z" fill="#333333"/>
</g>
</svg>
