<svg width="70" height="70" viewBox="0 0 70 70" fill="none" xmlns="http://www.w3.org/2000/svg">
<g opacity="0.3">
<rect x="4.2" y="43.9657" width="11.4545" height="20.3072" rx="2" fill="#333333"/>
<rect x="18.2" y="36.3505" width="11.4545" height="27.9224" rx="2" fill="#333333"/>
<rect x="32.2" y="31.2734" width="11.4545" height="32.9992" rx="2" fill="#333333"/>
<rect x="46.2" y="26.1965" width="11.4545" height="38.076" rx="2" fill="#333333"/>
<path d="M4.06741 35.8504C3.52 35.9237 3.1356 36.4268 3.20883 36.9742C3.28205 37.5216 3.78518 37.906 4.33259 37.8328L4.06741 35.8504ZM47.4727 17.8036L35.9631 18.7315L42.5215 28.2352L47.4727 17.8036ZM4.33259 37.8328C10.8035 36.9672 25.7781 32.9991 40.5961 23.7627L39.5382 22.0655C24.9764 31.1421 10.2752 35.02 4.06741 35.8504L4.33259 37.8328Z" fill="#333333"/>
<ellipse cx="57.6545" cy="15.3291" rx="8.90909" ry="8.32914" fill="#333333"/>
<path d="M60.9954 16.7114C60.9954 17.3069 60.7801 17.8279 60.3495 18.2745C59.9259 18.714 59.3188 19.0046 58.5282 19.1464V20.3266H57.0351V19.1995C56.5056 19.1712 55.9973 19.0897 55.5102 18.955C55.0302 18.8203 54.6313 18.6537 54.3136 18.4552L55.1184 16.6264C55.4714 16.8319 55.8667 16.9985 56.3044 17.1261C56.7421 17.2466 57.1621 17.3069 57.5645 17.3069C57.9104 17.3069 58.1575 17.275 58.3058 17.2112C58.454 17.1403 58.5282 17.0375 58.5282 16.9028C58.5282 16.7469 58.4293 16.6299 58.2317 16.5519C58.041 16.474 57.7234 16.3889 57.2786 16.2967C56.7068 16.1762 56.2303 16.0486 55.8491 15.914C55.4679 15.7722 55.1361 15.5454 54.8537 15.2335C54.5713 14.9145 54.4301 14.4856 54.4301 13.9469C54.4301 13.3231 54.6525 12.7879 55.0972 12.3413C55.549 11.8947 56.195 11.6112 57.0351 11.4907V10.3317H58.5282V11.4694C59.3753 11.5474 60.0918 11.7529 60.6778 12.0861L59.9259 13.9043C59.1988 13.5357 58.5105 13.3514 57.861 13.3514C57.2186 13.3514 56.8974 13.5074 56.8974 13.8193C56.8974 13.9681 56.9927 14.0815 57.1833 14.1595C57.3739 14.2304 57.6881 14.3084 58.1258 14.3934C58.6905 14.4998 59.167 14.6238 59.5553 14.7656C59.9436 14.9003 60.2789 15.1236 60.5613 15.4355C60.8507 15.7474 60.9954 16.1727 60.9954 16.7114Z" fill="white"/>
</g>
</svg>
