<svg width="71" height="70" viewBox="0 0 71 70" fill="none" xmlns="http://www.w3.org/2000/svg">
<g clip-path="url(#clip0_12_152)">
<path fill-rule="evenodd" clip-rule="evenodd" d="M63.3639 14.9536C63.0989 14.9263 62.8317 14.9263 62.5667 14.9536H56L35.5 35L15 14.9536H8.12222C7.77328 14.959 7.42665 15.0113 7.09167 15.1091L33.7757 41.6823C34.5568 42.4602 35.8201 42.4594 36.6002 41.6804L63.3639 14.9536Z" fill="#333333"/>
<path d="M66.2417 17.6562L37.9306 45.8507C37.2019 46.575 36.2163 46.9816 35.1889 46.9816C34.1615 46.9816 33.1759 46.575 32.4472 45.8507L4.38889 17.8701C4.30263 18.1872 4.2569 18.5138 4.25278 18.8424V57.7313C4.25278 58.7626 4.6625 59.7518 5.39181 60.4811C6.12111 61.2104 7.11027 61.6201 8.14167 61.6201H62.5861C63.6175 61.6201 64.6067 61.2104 65.336 60.4811C66.0653 59.7518 66.475 58.7626 66.475 57.7313V18.8424C66.4595 18.4372 66.3808 18.037 66.2417 17.6562ZM10.8056 57.7313H8.10278V54.9507L22.2389 40.9313L24.9806 43.6729L10.8056 57.7313ZM62.5472 57.7313H59.825L45.65 43.6729L48.3917 40.9313L62.5278 54.9507L62.5472 57.7313Z" fill="#333333"/>
</g>
<path d="M48.9522 4.21523C48.1749 3.43763 47.2521 2.82078 46.2364 2.39992C45.2207 1.97907 44.132 1.76245 43.0326 1.76245C41.9332 1.76245 40.8445 1.97907 39.8288 2.39992C38.8131 2.82078 37.8903 3.43763 37.113 4.21523L35.5 5.82827L33.887 4.21523C32.317 2.64526 30.1877 1.76326 27.9674 1.76326C25.7471 1.76326 23.6178 2.64526 22.0478 4.21523C20.4779 5.7852 19.5959 7.91453 19.5959 10.1348C19.5959 12.3551 20.4779 14.4844 22.0478 16.0544L23.6609 17.6674L35.5 29.5065L47.3391 17.6674L48.9522 16.0544C49.7298 15.2771 50.3466 14.3543 50.7675 13.3386C51.1883 12.3229 51.405 11.2342 51.405 10.1348C51.405 9.03536 51.1883 7.94669 50.7675 6.93099C50.3466 5.91529 49.7298 4.99247 48.9522 4.21523Z" fill="#333333"/>
<defs>
<clipPath id="clip0_12_152">
<rect width="70" height="70" fill="white" transform="translate(0.5 3.28687)"/>
</clipPath>
</defs>
</svg>
