<svg width="71" height="70" viewBox="0 0 71 70" fill="none" xmlns="http://www.w3.org/2000/svg">
<g opacity="0.3" clip-path="url(#clip0_12_113)">
<path fill-rule="evenodd" clip-rule="evenodd" d="M30.1917 64.1667H40.8083C41.473 64.1662 42.1176 63.9386 42.6353 63.5217C43.153 63.1047 43.5128 62.5235 43.655 61.8742L44.8596 56.3938C46.4423 55.7011 47.9429 54.8344 49.3338 53.8096L40.8083 45.2842V24.7334L49.3338 16.208C47.9394 15.1862 46.4382 14.3187 44.8567 13.6209L43.655 8.12879C43.5133 7.47895 43.1538 6.89705 42.6361 6.47956C42.1183 6.06207 41.4734 5.83407 40.8083 5.83337H30.1917C29.5266 5.83407 28.8817 6.06207 28.3639 6.47956C27.8462 6.89705 27.4867 7.47895 27.345 8.12879L26.155 13.618C25.3792 13.9534 24.6208 14.3296 23.8829 14.7438C23.1188 15.1871 22.3779 15.6771 21.6663 16.2021L16.3083 14.4959C15.6742 14.2936 14.9899 14.3144 14.3691 14.5548C13.7484 14.7951 13.2285 15.2405 12.8958 15.8171L7.58751 25.0134C7.2576 25.5908 7.13363 26.2631 7.2359 26.9202C7.33818 27.5773 7.66063 28.1802 8.15043 28.63L12.3067 32.413C12.1177 34.1306 12.1177 35.8637 12.3067 37.5813L8.15043 41.373C7.66133 41.8226 7.33931 42.4249 7.23705 43.0814C7.13479 43.7379 7.25835 44.4096 7.58751 44.9867L12.9075 54.1771C13.2402 54.7537 13.76 55.1992 14.3808 55.4395C15.0015 55.6798 15.6858 55.7006 16.32 55.4984L21.6779 53.7921C23.0699 54.8177 24.5714 55.6853 26.155 56.3792L27.3421 61.8742C27.4844 62.524 27.8446 63.1056 28.3629 63.5226C28.8812 63.9395 29.5265 64.1668 30.1917 64.1667Z" fill="#333333"/>
<path d="M35.4883 23.3334C32.3941 23.3334 29.4267 24.5625 27.2387 26.7505C25.0508 28.9384 23.8217 31.9058 23.8217 35C23.8217 38.0942 25.0508 41.0617 27.2387 43.2496C29.4267 45.4375 32.3941 46.6667 35.4883 46.6667C38.5825 46.6667 41.55 45.4375 43.7379 43.2496C45.9258 41.0617 47.155 38.0942 47.155 35C47.155 31.9058 45.9258 28.9384 43.7379 26.7505C41.55 24.5625 38.5825 23.3334 35.4883 23.3334Z" fill="white"/>
<circle cx="36.7963" cy="35" r="3.88889" fill="#333333"/>
<circle cx="60.1296" cy="35" r="3.88889" fill="#333333"/>
<circle cx="48.463" cy="27.2223" r="3.88889" fill="#333333"/>
<circle cx="60.1296" cy="19.4444" r="3.88889" fill="#333333"/>
<path d="M37.4445 29.8148L39.0889 27.6222C39.2778 27.3704 39.5741 27.2222 39.8889 27.2222H43.2778" stroke="#333333" stroke-width="2" stroke-linecap="round"/>
<path d="M49.1111 22.0371L50.7555 19.8445C50.9444 19.5927 51.2408 19.4445 51.5555 19.4445H54.9444" stroke="#333333" stroke-width="2" stroke-linecap="round"/>
<circle r="3.88889" transform="matrix(1 0 0 -1 48.463 42.7779)" fill="#333333"/>
<circle r="3.88889" transform="matrix(1 0 0 -1 60.1297 50.5556)" fill="#333333"/>
<path d="M37.4445 40.1852L39.0889 42.3778C39.2778 42.6296 39.5741 42.7778 39.8889 42.7778H43.2778" stroke="#333333" stroke-width="2" stroke-linecap="round"/>
<path d="M49.1111 47.9628L50.7556 50.1554C50.9444 50.4072 51.2408 50.5554 51.5556 50.5554H54.9445" stroke="#333333" stroke-width="2" stroke-linecap="round"/>
<path d="M41.9815 35H54.9445" stroke="#333333" stroke-width="2" stroke-linecap="round"/>
</g>
<defs>
<clipPath id="clip0_12_113">
<rect width="70" height="70" fill="white" transform="translate(0.5)"/>
</clipPath>
</defs>
</svg>
