<svg width="61" height="62" viewBox="0 0 61 62" fill="none" xmlns="http://www.w3.org/2000/svg">
<circle cx="30.5" cy="31.0001" r="20.1064" fill="#333333"/>
<circle cx="30.5" cy="31.0001" r="26.8333" stroke="#333333" stroke-width="7"/>
<path d="M33.8444 17.8312C33.5171 17.9331 33.2134 18.264 32.9307 18.8286C32.7396 19.2092 32.6479 19.4803 32.5537 19.9505C32.3678 20.846 32.2395 21.331 32.0798 21.7141C31.8861 22.1867 31.7369 22.4155 31.407 22.7513C31.064 23.0996 30.6373 23.5896 30.0273 24.3259C28.9461 25.6318 28.2313 26.393 27.7837 26.7089C27.5349 26.8855 27.514 26.8954 27.2679 26.9352C26.9145 26.9949 26.6762 27.1566 26.5139 27.4526L26.4406 27.5845V32.4226V37.2606L26.5113 37.3875C26.6684 37.6736 27.0113 37.875 27.4093 37.9198C27.8936 37.9745 28.645 38.1785 29.9357 38.6039C30.331 38.7357 30.708 38.8576 30.7734 38.875C30.8389 38.8949 31.1138 38.9795 31.3887 39.0616C32.5354 39.4148 33.9988 39.6909 35.0801 39.7605C35.5958 39.7929 37.3839 39.7929 37.8683 39.7605C38.9443 39.6859 39.7323 39.3849 40.3292 38.8153C40.9523 38.2258 41.2455 37.4771 41.2455 36.4846V36.0766L41.3947 35.91C41.7272 35.5393 41.921 35.1762 42.0571 34.6712C42.1985 34.1513 42.2116 33.6514 42.0937 33.2086L42.0519 33.0494L42.1618 32.8952C42.3294 32.6589 42.5231 32.2559 42.5938 31.9873C42.7482 31.4102 42.7273 30.8206 42.531 30.1739L42.4786 30.0023L42.5938 29.863C42.8739 29.5247 43.0676 29.1441 43.2038 28.6665C43.2666 28.4476 43.2719 28.3929 43.2719 27.8954C43.2719 27.383 43.2692 27.3506 43.2012 27.1367C42.9027 26.2089 42.1068 25.4527 41.167 25.2114C40.8004 25.1169 40.5858 25.1094 38.3866 25.1094C37.2085 25.1094 36.2451 25.1045 36.2451 25.0995C36.2451 25.0323 36.4467 24.607 36.7399 24.0573C37.1195 23.3434 37.2504 23.0225 37.3813 22.4653C37.4887 22.0151 37.5096 21.7812 37.4939 21.1245C37.4703 20.04 37.342 19.55 36.9153 18.9306C36.5435 18.3859 35.9571 18.0451 35.0984 17.8685C34.7685 17.8013 34.0093 17.7789 33.8444 17.8312Z" fill="white"/>
<path d="M19.8904 26.9601C19.6312 27.0397 19.3982 27.2312 19.2751 27.4675L19.2149 27.5845V32.435V37.2855L19.3039 37.4422C19.4139 37.6338 19.55 37.7532 19.7752 37.8551L19.948 37.9323H22.3173C24.574 37.9323 24.6918 37.9298 24.8175 37.885C24.9981 37.8203 25.1997 37.6736 25.2966 37.5343C25.472 37.283 25.4589 37.681 25.4536 32.3852L25.4458 27.5845L25.3856 27.4675C25.2887 27.281 25.1107 27.1118 24.9143 27.0198L24.7389 26.9377L22.3696 26.9327C20.4585 26.9278 19.9794 26.9352 19.8904 26.9601ZM22.4246 34.3254C22.6916 34.415 22.9587 34.6986 23.0241 34.9622C23.0686 35.1339 23.0451 35.4174 22.977 35.5642C22.9011 35.7259 22.689 35.9323 22.5084 36.0194C22.3696 36.0841 22.333 36.0915 22.0947 36.0915C21.8617 36.0915 21.8172 36.0841 21.6863 36.0244C21.5083 35.9398 21.2936 35.7433 21.2203 35.5965C21.1051 35.3602 21.1025 35.0219 21.2177 34.8005C21.2936 34.6488 21.4612 34.4747 21.6052 34.3951C21.8355 34.2657 22.1654 34.2384 22.4246 34.3254Z" fill="white"/>
<path d="M22.4246 34.3254C22.6916 34.415 22.9587 34.6986 23.0241 34.9622C23.0686 35.1339 23.0451 35.4174 22.977 35.5642C22.9011 35.7259 22.689 35.9323 22.5084 36.0194C22.3696 36.0841 22.333 36.0915 22.0947 36.0915C21.8617 36.0915 21.8172 36.0841 21.6863 36.0244C21.5083 35.9398 21.2936 35.7433 21.2203 35.5965C21.1051 35.3602 21.1025 35.0219 21.2177 34.8005C21.2936 34.6488 21.4612 34.4747 21.6052 34.3951C21.8355 34.2657 22.1654 34.2384 22.4246 34.3254Z" fill="white"/>
</svg>
