<svg width="65" height="69" viewBox="0 0 65 69" fill="none" xmlns="http://www.w3.org/2000/svg">
<path d="M15.1273 62.0305C14.575 62.0305 14.1273 61.5828 14.1273 61.0305V59.7479C14.1273 52.184 20.318 46.0522 27.9547 46.0522H37.1729C44.8095 46.0522 51.0002 52.184 51.0002 59.7479V61.0305C51.0002 61.5828 50.5525 62.0305 50.0002 62.0305H15.1273Z" fill="#333333" stroke="#333333" stroke-width="2" stroke-linecap="round"/>
<path d="M32.5638 39.2045C27.4727 39.2045 23.3455 35.1166 23.3455 30.074C23.3455 25.0314 27.4727 20.9436 32.5638 20.9436C37.6547 20.9436 41.782 25.0314 41.782 30.074C41.782 35.1166 37.6547 39.2045 32.5638 39.2045Z" fill="#333333" stroke="#333333" stroke-width="2" stroke-linecap="round"/>
<path d="M56.3972 21.0112C56.5853 20.6579 57.0916 20.6579 57.2797 21.0112L58.9772 24.1979C59.0499 24.3344 59.1817 24.4295 59.3341 24.4556L62.9108 25.0686C63.3085 25.1368 63.4658 25.6236 63.1832 25.9116L60.6591 28.484C60.5497 28.5954 60.4987 28.7515 60.5211 28.906L61.0374 32.4613C61.095 32.8586 60.6846 33.1585 60.3236 32.9827L57.0574 31.392C56.9192 31.3247 56.7577 31.3247 56.6195 31.392L53.3533 32.9827C52.9923 33.1585 52.5819 32.8586 52.6395 32.4613L53.1558 28.906C53.1782 28.7515 53.1272 28.5954 53.0178 28.484L50.4937 25.9116C50.2111 25.6236 50.3684 25.1368 50.7661 25.0686L54.3428 24.4556C54.4952 24.4295 54.627 24.3344 54.6997 24.1979L56.3972 21.0112Z" fill="#333333"/>
<path d="M7.23327 21.0112C7.42144 20.6579 7.9277 20.6579 8.11587 21.0112L9.81336 24.1979C9.88605 24.3344 10.0178 24.4295 10.1702 24.4556L13.7469 25.0686C14.1446 25.1368 14.3019 25.6236 14.0193 25.9116L11.4952 28.484C11.3859 28.5954 11.3348 28.7515 11.3573 28.906L11.8735 32.4613C11.9312 32.8586 11.5207 33.1585 11.1597 32.9827L7.8935 31.392C7.7553 31.3247 7.59383 31.3247 7.45564 31.392L4.18941 32.9827C3.82846 33.1585 3.41798 32.8586 3.47567 32.4613L3.99188 28.906C4.01431 28.7515 3.96329 28.5954 3.85395 28.484L1.32983 25.9116C1.04723 25.6236 1.20457 25.1368 1.60225 25.0686L5.17894 24.4556C5.33134 24.4295 5.46309 24.3344 5.53578 24.1979L7.23327 21.0112Z" fill="#333333"/>
<path d="M16.4515 7.31551C16.6396 6.96227 17.1459 6.96227 17.3341 7.31551L19.0316 10.5022C19.1043 10.6387 19.236 10.7338 19.3884 10.76L22.9651 11.3729C23.3628 11.4411 23.5201 11.9279 23.2375 12.2159L20.7134 14.7883C20.6041 14.8997 20.553 15.0558 20.5755 15.2103L21.0917 18.7657C21.1494 19.163 20.7389 19.4628 20.3779 19.287L17.1117 17.6963C16.9735 17.629 16.812 17.629 16.6738 17.6963L13.4076 19.287C13.0467 19.4628 12.6362 19.163 12.6939 18.7657L13.2101 15.2103C13.2325 15.0558 13.1815 14.8997 13.0721 14.7883L10.548 12.2159C10.2654 11.9279 10.4228 11.4411 10.8205 11.3729L14.3971 10.76C14.5495 10.7338 14.6813 10.6387 14.754 10.5022L16.4515 7.31551Z" fill="#333333"/>
<path d="M31.8152 1.22859C32.0034 0.875351 32.5097 0.875352 32.6978 1.22859L34.3953 4.4153C34.468 4.55176 34.5998 4.64692 34.7522 4.67304L38.3289 5.28601C38.7265 5.35416 38.8839 5.84102 38.6013 6.12901L36.0772 8.70138C35.9678 8.81281 35.9168 8.96892 35.9392 9.12341L36.4554 12.6787C36.5131 13.0761 36.1026 13.3759 35.7417 13.2001L32.4755 11.6094C32.3373 11.5421 32.1758 11.5421 32.0376 11.6094L28.7714 13.2001C28.4104 13.3759 28 13.0761 28.0576 12.6787L28.5738 9.12341C28.5963 8.96892 28.5453 8.81281 28.4359 8.70138L25.9118 6.12901C25.6292 5.84102 25.7865 5.35416 26.1842 5.28601L29.7609 4.67304C29.9133 4.64692 30.0451 4.55176 30.1178 4.4153L31.8152 1.22859Z" fill="#333333"/>
<path d="M47.179 7.31551C47.3671 6.96227 47.8734 6.96227 48.0615 7.31551L49.759 10.5022C49.8317 10.6387 49.9635 10.7338 50.1159 10.76L53.6926 11.3729C54.0903 11.4411 54.2476 11.9279 53.965 12.2159L51.4409 14.7883C51.3315 14.8997 51.2805 15.0558 51.3029 15.2103L51.8191 18.7657C51.8768 19.163 51.4664 19.4628 51.1054 19.287L47.8392 17.6963C47.701 17.629 47.5395 17.629 47.4013 17.6963L44.1351 19.287C43.7741 19.4628 43.3637 19.163 43.4213 18.7657L43.9376 15.2103C43.96 15.0558 43.909 14.8997 43.7996 14.7883L41.2755 12.2159C40.9929 11.9279 41.1502 11.4411 41.5479 11.3729L45.1246 10.76C45.277 10.7338 45.4088 10.6387 45.4815 10.5022L47.179 7.31551Z" fill="#333333"/>
</svg>
